<?xml version="1.0" standalone="no"?>
<!DOCTYPE svg PUBLIC "-//W3C//DTD SVG 20010904//EN"
 "http://www.w3.org/TR/2001/REC-SVG-20010904/DTD/svg10.dtd">
<svg version="1.0" xmlns="http://www.w3.org/2000/svg"
 width="137.000000pt" height="131.000000pt" viewBox="0 0 137.000000 131.000000"
 preserveAspectRatio="xMidYMid meet">

<g transform="translate(0.000000,131.000000) scale(0.100000,-0.100000)"
fill="#000000" stroke="none">
<path d="M582 1134 c-13 -23 -3 -52 20 -59 22 -8 48 11 48 34 0 38 -51 56 -68
25z"/>
<path d="M713 1144 c-18 -8 -16 -49 3 -65 23 -19 49 1 49 37 0 29 -22 40 -52
28z"/>
<path d="M600 1031 c0 -10 7 -21 15 -25 11 -4 15 1 15 19 0 16 -6 25 -15 25
-8 0 -15 -9 -15 -19z"/>
<path d="M720 1031 c0 -10 7 -21 15 -25 11 -4 15 1 15 19 0 16 -6 25 -15 25
-8 0 -15 -9 -15 -19z"/>
<path d="M326 1018 c-26 -37 4 -69 48 -52 22 9 20 51 -3 64 -26 14 -28 13 -45
-12z"/>
<path d="M968 1029 c-29 -16 -23 -57 9 -65 36 -9 59 20 40 50 -17 25 -27 28
-49 15z"/>
<path d="M498 969 c-16 -9 -18 -29 -18 -179 0 -140 3 -171 16 -184 23 -24 335
-24 358 0 24 23 24 335 0 358 -13 13 -43 16 -177 16 -91 0 -170 -5 -179 -11z"/>
<path d="M340 905 l0 -35 58 0 c46 0 59 3 59 15 0 11 -12 15 -44 15 -36 0 -43
3 -43 20 0 11 -7 20 -15 20 -10 0 -15 -11 -15 -35z"/>
<path d="M970 920 c0 -17 -7 -20 -40 -20 -29 0 -40 -4 -40 -15 0 -12 13 -15
55 -15 l55 0 0 35 c0 24 -5 35 -15 35 -8 0 -15 -9 -15 -20z"/>
<path d="M195 801 c-9 -31 5 -52 33 -49 33 4 50 31 33 52 -18 22 -58 20 -66
-3z"/>
<path d="M1079 804 c-17 -21 0 -48 33 -52 28 -3 42 18 33 49 -8 23 -48 25 -66
3z"/>
<path d="M290 785 c0 -12 16 -15 83 -15 68 0 84 3 84 15 0 12 -16 15 -84 15
-67 0 -83 -3 -83 -15z"/>
<path d="M890 785 c0 -12 16 -15 80 -15 64 0 80 3 80 15 0 12 -16 15 -80 15
-64 0 -80 -3 -80 -15z"/>
<path d="M347 693 c-14 -13 -7 -63 8 -63 8 0 15 9 15 20 0 17 7 20 43 20 32 0
44 4 44 15 0 11 -13 15 -52 15 -28 0 -55 -3 -58 -7z"/>
<path d="M890 686 c0 -12 11 -16 40 -16 33 0 40 -3 40 -20 0 -11 7 -20 16 -20
11 0 14 8 12 33 -3 31 -4 32 -55 35 -43 2 -53 0 -53 -12z"/>
<path d="M319 589 c-9 -18 -7 -25 9 -41 16 -16 23 -18 41 -9 23 13 28 40 9 59
-19 19 -46 14 -59 -9z"/>
<path d="M962 598 c-19 -19 -14 -46 9 -59 18 -9 25 -7 41 9 16 16 18 23 9 41
-13 23 -40 28 -59 9z"/>
<path d="M600 550 c0 -11 7 -20 15 -20 8 0 15 9 15 20 0 11 -7 20 -15 20 -8 0
-15 -9 -15 -20z"/>
<path d="M720 550 c0 -11 7 -20 15 -20 8 0 15 9 15 20 0 11 -7 20 -15 20 -8 0
-15 -9 -15 -20z"/>
<path d="M290 505 c-8 -2 -32 -6 -52 -10 l-38 -6 0 -103 0 -102 223 -72 c123
-40 230 -72 238 -72 31 0 445 152 457 167 16 22 15 27 -6 54 l-19 22 -159 -31
c-87 -18 -169 -32 -181 -32 -15 0 -23 -7 -25 -22 -2 -12 -15 -29 -30 -37 -25
-14 -32 -13 -132 33 -59 27 -105 54 -103 60 6 15 12 13 118 -35 92 -41 119
-44 119 -11 0 13 -38 38 -142 92 -79 40 -156 82 -173 92 -28 17 -57 20 -95 13z"/>
<path d="M581 482 c-14 -27 8 -55 40 -50 19 2 24 9 24 33 0 25 -4 31 -27 33
-18 2 -30 -3 -37 -16z"/>
<path d="M704 486 c-12 -31 0 -51 31 -51 27 0 30 3 30 30 0 25 -4 30 -28 33
-17 2 -29 -2 -33 -12z"/>
</g>
</svg>
